<?xml version="1.0" encoding="iso-8859-1"?>
<!-- Uploaded to: SVG Repo, www.svgrepo.com, Generator: SVG Repo Mixer Tools -->
<!DOCTYPE svg PUBLIC "-//W3C//DTD SVG 1.1//EN" "http://www.w3.org/Graphics/SVG/1.1/DTD/svg11.dtd">
<svg fill="#000000" height="800px" width="800px" version="1.1" id="Capa_1" xmlns="http://www.w3.org/2000/svg" xmlns:xlink="http://www.w3.org/1999/xlink" 
	 viewBox="0 0 245.748 245.748" xml:space="preserve">
<g>
	<circle cx="150.741" cy="78.38" r="6.987"/>
	<circle cx="95.007" cy="78.38" r="6.987"/>
	<path d="M194.572,162.013c0.922,0.42,1.912,0.63,2.902,0.63s1.98-0.21,2.902-0.63c27.562-12.558,45.371-40.223,45.371-70.48
		c0-30.259-17.81-57.924-45.371-70.48c-1.844-0.84-3.961-0.84-5.805,0c-11.931,5.436-22.129,13.658-29.898,24.035
		c-11.084-9.985-25.743-16.075-41.8-16.075c-16.063,0-30.727,6.094-41.812,16.085C73.27,34.715,63.026,26.451,51.176,21.052
		c-1.844-0.84-3.961-0.84-5.805,0C17.81,33.609,0,61.274,0,91.533c0,30.258,17.81,57.923,45.371,70.48
		c0.922,0.42,1.912,0.63,2.902,0.63s1.98-0.21,2.902-0.63c4.604-2.097,8.949-4.61,12.996-7.5l20.952,65.933
		c0.923,2.906,3.622,4.88,6.671,4.88h62.158c2.991,0,5.651-1.9,6.621-4.729l13.779-40.18c6.143,1.173,12.701,1.782,19.693,1.782
		c3.866,0,7-3.134,7-7s-3.134-7-7-7c-5.347,0-10.377-0.401-15.097-1.182l3.972-11.583
		C186.592,157.946,190.485,160.151,194.572,162.013z M197.477,35.207c20.924,10.852,34.271,32.617,34.271,56.326
		c0,23.708-13.351,45.475-34.274,56.328c-9.348-4.845-17.321-11.946-23.278-20.685c7.05-10.119,11.198-22.403,11.198-35.643
		c0-13.249-4.154-25.539-11.212-35.662C180.101,47.218,188.187,40.039,197.477,35.207z M122.874,43.012
		c26.754,0,48.521,21.767,48.521,48.521c0,21.725-14.354,40.161-34.075,46.324c-8.332-16.411-7.763-33.613-7.755-33.832
		c0.167-3.855-2.819-7.119-6.676-7.295c-3.865-0.17-7.135,2.813-7.311,6.676c-0.045,0.999-0.689,18.379,7.282,36.647
		c-26.748-0.007-48.507-21.771-48.507-48.52C74.354,64.779,96.12,43.012,122.874,43.012z M48.271,147.859
		C27.351,137.005,14,115.239,14,91.533c0-23.709,13.351-45.476,34.274-56.328c9.348,4.845,17.322,11.946,23.278,20.685
		c-7.05,10.119-11.199,22.403-11.199,35.643c0,13.249,4.154,25.539,11.212,35.662C65.646,135.847,57.561,143.027,48.271,147.859z
		 M148.953,211.326h-19.079v-15.039c0-3.866-3.134-7-7-7s-7,3.134-7,7v15.039H96.915l-21.256-66.89
		c1.914-2.048,3.724-4.199,5.415-6.457c11.084,9.985,25.743,16.075,41.8,16.075c2.591,0,5.14-0.177,7.649-0.485
		c1.733,2.401,3.658,4.749,5.812,7.003c6.791,7.106,14.985,12.472,24.508,16.084L148.953,211.326z M146.537,150.983
		c-0.369-0.385-0.718-0.779-1.072-1.171c7.129-2.773,13.632-6.807,19.22-11.843c2.077,2.767,4.33,5.379,6.739,7.83l-6.025,17.567
		C158.029,160.5,151.716,156.378,146.537,150.983z"/>
</g>
</svg>